<?xml version="1.0" encoding="utf-8"?>
<!-- Generator: Adobe Illustrator 22.0.0, SVG Export Plug-In . SVG Version: 6.00 Build 0)  -->
<svg version="1.1" id="图层_1" xmlns="http://www.w3.org/2000/svg" xmlns:xlink="http://www.w3.org/1999/xlink" x="0px" y="0px"
	 viewBox="0 0 307.9 307.9" style="enable-background:new 0 0 307.9 307.9;" xml:space="preserve">
<style type="text/css">
	.st0{fill:#444444;}
	.st1{fill:#FFFFFF;}
</style>
<title>资源 3</title>
<circle class="st0" cx="153.9" cy="153.9" r="153.9"/>
<path class="st1" d="M195.7,241.6c-1.2,0-2.3-0.7-2.8-1.8c-0.7-1.6-0.1-3.4,1.5-4.2c0,0,0,0,0,0c20.5-9.7,33.5-30.3,33.6-53v-57.5
	c-0.1-22.7-13.1-43.3-33.6-53c-1.7-0.5-2.6-2.3-2-4s2.3-2.6,4-2c0.3,0.1,0.5,0.2,0.7,0.3c22.6,10.8,37.1,33.6,37.2,58.6v57.5
	c-0.1,25.1-14.5,47.9-37.2,58.6C196.6,241.5,196.1,241.6,195.7,241.6z"/>
<path class="st1" d="M112.2,241.6c-0.5,0-0.9-0.1-1.3-0.3c-22.6-10.8-37.1-33.6-37.2-58.6v-57.5c0.1-25.1,14.5-47.9,37.2-58.6
	c1.6-0.7,3.4-0.1,4.2,1.5s0.1,3.4-1.5,4.2l0,0c-20.4,9.7-33.5,30.3-33.6,53v57.5c0,22.7,13.1,43.3,33.6,53c1.6,0.7,2.3,2.5,1.6,4.1
	C114.7,241,113.5,241.7,112.2,241.6L112.2,241.6z"/>
<path class="st1" d="M170.2,197.5h-32.5c-6.6,0-11.9-5.3-11.9-11.9c0-2.8,1-5.4,2.7-7.6l42.6-52.1c1.5-1.8,1.2-4.5-0.6-6
	c-0.8-0.6-1.7-1-2.7-1h-26.5c-2.4,0-4.3,1.9-4.3,4.3c0,1,0.3,1.9,0.9,2.6l11,14.1c1.2,1.6,1.2,3.8-0.1,5.3l0,0
	c-1.5,1.8-4.2,2.1-6,0.6c-0.2-0.2-0.4-0.4-0.6-0.7L130,129.6c-4-5.2-3.1-12.7,2.1-16.7c2.1-1.6,4.7-2.5,7.3-2.5h30.4
	c6.6,0,11.9,5.4,11.9,12c0,2.7-1,5.4-2.7,7.5L136.4,182c-1.5,1.8-1.2,4.5,0.6,6c0.8,0.6,1.7,1,2.7,1h28.6c2.4,0,4.3-1.9,4.3-4.3
	c0-0.9-0.3-1.9-0.9-2.6L160,166.9c-1.2-1.6-1.2-3.8,0.1-5.4l0.1-0.2c1.5-1.8,4.2-2,6.1-0.5c0.2,0.2,0.5,0.4,0.7,0.7l12.8,16.9
	c4,5.3,2.9,12.7-2.3,16.7C175.3,196.7,172.8,197.5,170.2,197.5z"/>
<path class="st1" d="M154,293.9c-77.2,0-140-62.8-140-139.9S76.8,14,154,14s139.9,62.8,139.9,140S231.1,293.9,154,293.9z M154,23.4
	C82,23.4,23.4,82,23.4,154S82,284.5,154,284.5S284.5,226,284.5,154S226,23.4,154,23.4z"/>
</svg>
