<?xml version="1.0" encoding="utf-8"?>
<!-- Generator: Adobe Illustrator 22.0.0, SVG Export Plug-In . SVG Version: 6.00 Build 0)  -->
<svg version="1.1" id="图层_1" xmlns="http://www.w3.org/2000/svg" xmlns:xlink="http://www.w3.org/1999/xlink" x="0px" y="0px"
	 viewBox="0 0 500 500" style="enable-background:new 0 0 500 500;" xml:space="preserve">
<style type="text/css">
	.st0{fill:#080D28;}
	.st1{fill:#262C4C;}
	.st2{fill:#3A4068;}
	.st3{fill:#1D2349;}
	.st4{fill:#131735;}
	.st5{fill:url(#SVGID_1_);}
	.st6{fill:#D89D91;}
	.st7{fill:#DD6BDA;}
	.st8{fill:#81A9DB;}
	.st9{fill:#6DF1E9;}
	.st10{fill:#1D95B5;}
	.st11{fill:#2468B1;}
	.st12{fill:#4B2AB2;}
	.st13{fill:url(#SVGID_2_);}
	.st14{fill:#5136AB;}
	.st15{fill:#FFBE1B;}
	.st16{fill:#FFFFFF;}
</style>
<path class="st0" d="M486.2,269.7c0,130.2-104.6,226.3-234.8,226.3S16.6,399.9,16.6,269.7S121.2,43.6,251.4,43.6
	S486.2,139.7,486.2,269.7z"/>
<path class="st1" d="M486.2,230.2c0,130.2-104.6,226.3-234.8,226.3S16.6,360.4,16.6,230.2S121.2,3.9,251.4,3.9
	S486.2,100.2,486.2,230.2z"/>
<path class="st2" d="M415.4,66.1c-19.9-17-45.2-33.9-70.8-42.4L36.5,326.3c11.4,25.5,28.2,48.1,48.1,65.1L415.4,66.1z M186.3,447.9
	c-17-5.7-31-11.4-48.1-17L455,117c8.5,14.2,14.2,28.2,19.9,45.2L186.3,447.9z"/>
<path class="st3" d="M443.6,227.3c0,104.6-84.8,178.2-189.4,178.2S64.9,332,64.9,227.3s84.8-178,189.4-178S443.6,122.7,443.6,227.3z
	"/>
<path class="st4" d="M423.9,149.1C367.4,75.5,262.8,52.8,177.8,101C95.9,149.1,64,246,97.9,330.8C75.2,302.6,62,267.7,62,228.2
	C62,123.6,146.8,50,251.4,50C327.8,47.3,395.6,86.8,423.9,149.1z"/>
<g>
	
		<linearGradient id="SVGID_1_" gradientUnits="userSpaceOnUse" x1="92.881" y1="260.1743" x2="425.9309" y2="260.1743" gradientTransform="matrix(1 0 0 -1 0 502)">
		<stop  offset="0" style="stop-color:#D36326"/>
		<stop  offset="0.3472" style="stop-color:#8035BE"/>
		<stop  offset="0.6684" style="stop-color:#2B6EA1"/>
		<stop  offset="1" style="stop-color:#1DD6FF"/>
	</linearGradient>
	<path class="st5" d="M92.9,277.1c0,0-6.4-69.1,110-140.7s193.8-7.3,193.8-7.3s84.2,65.7-33.6,184c0,0-98.8,93-200.1,61.3
		c0,0-101.7-35.6-6.8-156.3c0,0,81.8-83.7,162.1-59.9c0,0,93.5,33.6-6.4,134.9c0,0-91.2,70.4-136.3,19c0,0-33.1-52.6,47.7-102.7
		c2.1-0.9,44.8-24.4,75.9-5.8c0,0,24.8,11.6-1,51.1c0,0,9.7-27.3-8.8-37.7c0,0-29.7-18-71.6,20.3c0,0-28.5,30.4-10.1,53.9
		c0,0,16.3,26.8,67.1,2.3c0,0,60.6-26.6,51.8-83.6c0,0-13.7-53-99.3-14.6c0,0-64.2,26.8-73,89.7c0,0-14.3,74,86,60.4
		c0,0,116.5-19.8,147.1-128.5c0,0,18.8-68.4-65.2-88.6c0,0-67.2-22.7-167.8,58.1C154.6,186.4,106,221.8,92.9,277.1z"/>
	<path class="st6" d="M143.6,277.6c0,0-13.4,48.7,20.2,72.1c0,0,16.4,13.8,56.7,10.4c0,0-31.3,9.6-60.6-7.3
		C159.9,352.8,125.1,329.7,143.6,277.6z"/>
	<path class="st7" d="M204.4,240.3c0,0-19.7,15.3-18,39.2c0,0,1.5,22.3,29.9,29.9c0,0-26.3,4.2-34.1-28.5
		C182.3,281,177.5,257.2,204.4,240.3z"/>
	<path class="st8" d="M209.1,192.6c0,0,23.6-23.8,77.1-20.7c0,0,43.3,1,48.2,40.4c0,0-10.3-35.4-55.2-37
		C279.2,175.3,242.7,172.4,209.1,192.6z"/>
	<path class="st9" d="M397.7,174.1c0,0,13.7,54-23.1,98.6c0,0-32.3,49.1-84.4,72.3c0,0,46-11.5,87.4-68.9
		C377.6,276.1,418.4,219.4,397.7,174.1z"/>
	<path class="st10" d="M208.5,134.1c0,0,74.4-55.4,166.5-19.1c0,0,19.7,8.8,32,24c19.9,27,35.2,70.9-12.7,138.1
		c0,0,39.9-62.5,2.4-121.5S284.3,102.6,208.5,134.1z"/>
	<path class="st11" d="M263.1,156.8c0,0,66.2-18.1,91.3,33.8c0,0,23,36.6-41.1,101.7c0,0,36.6-42.1,31.4-91.5
		C344.7,200.9,337.1,151.9,263.1,156.8z"/>
	<path class="st12" d="M169.2,244.5c0,0-47.8,58.9-0.4,97.1c0,0,21.4,23.6,92.5-0.4c0,0-57.9,16.4-87.7-5.2
		C173.8,336,132.1,311.4,169.2,244.5z"/>
	
		<radialGradient id="SVGID_2_" cx="254.0241" cy="243.8262" r="24.2988" gradientTransform="matrix(1 0 0 -1 0 502)" gradientUnits="userSpaceOnUse">
		<stop  offset="0" style="stop-color:#CD30C6"/>
		<stop  offset="0.5389" style="stop-color:#9020CA"/>
		<stop  offset="1" style="stop-color:#621AB7"/>
	</radialGradient>
	<path class="st13" d="M263.7,273.6c-13.6,8.6-29,8.6-34.4,0.1c-5.4-8.5,1.3-22.4,14.9-30.9c13.6-8.6,29-8.6,34.4-0.1
		C284.1,251.2,277.4,265.1,263.7,273.6z"/>
	<path class="st14" d="M213.9,242.8c0,0-17.1,20.9-11,38.2c6.1,17.4,19.9,22.2,29.7,22.6c0,0-21.2,8.3-34.8-20.6
		C197.8,283.2,189.5,263.2,213.9,242.8z"/>
	<path class="st15" d="M217.8,360.4c-0.1-0.6-0.5-1.1-1-1.3l-9.1-3.6l-2.2-9.5c-0.1-0.6-0.6-1-1.2-1.2c-0.6-0.1-1.2,0.1-1.6,0.6
		l-6.2,7.5l-9.7-0.8c-0.6-0.1-1.2,0.3-1.5,0.7c-0.3,0.5-0.3,1.1,0,1.7l5.3,8.2l-3.8,9c-0.3,0.6-0.1,1.2,0.3,1.7
		c0.4,0.5,1,0.6,1.6,0.5l9.4-2.4l7.4,6.4c0.2,0.2,0.5,0.3,0.6,0.4c0.3,0.1,0.6,0.1,0.9-0.1c0.6-0.2,0.9-0.7,0.9-1.3l0.6-9.7l8.4-5
		C217.6,361.5,217.8,361,217.8,360.4z"/>
	<path class="st16" d="M375.1,198.1c0-0.2-0.2-0.5-0.4-0.6l-3.5-1.4l-0.8-3.7c-0.1-0.2-0.2-0.4-0.5-0.5c-0.2-0.1-0.5,0-0.6,0.2
		l-2.4,2.9l-3.8-0.4c-0.2,0-0.5,0.1-0.6,0.3s-0.1,0.5,0,0.6l2,3.1l-1.5,3.4c-0.1,0.2-0.1,0.5,0.1,0.6c0.2,0.2,0.4,0.3,0.6,0.2
		l3.6-0.9l2.9,2.5c0.1,0.1,0.2,0.1,0.3,0.1c0.1,0,0.3,0,0.4,0c0.2-0.1,0.4-0.3,0.4-0.6l0.3-3.8l3.2-1.9
		C375,198.5,375.1,198.3,375.1,198.1z"/>
	<path class="st16" d="M365.8,174.9c0-0.1-0.1-0.2-0.2-0.3l-1.8-0.7l-0.5-1.8c0-0.1-0.1-0.2-0.2-0.2c-0.1,0-0.3,0-0.3,0.1l-1.2,1.5
		l-1.9-0.2c-0.1,0-0.2,0-0.3,0.2c-0.1,0.1-0.1,0.2,0,0.3l1,1.6l-0.7,1.8c0,0.1,0,0.2,0.1,0.3s0.2,0.1,0.3,0.1l1.8-0.5l1.5,1.3
		l0.1,0.1c0.1,0,0.1,0,0.2,0s0.2-0.2,0.2-0.3l0.1-1.9l1.7-1C365.7,175.2,365.8,175,365.8,174.9z"/>
	<path class="st16" d="M386,196.5c0-0.1-0.1-0.2-0.2-0.3l-1.8-0.7l-0.5-1.8c0-0.1-0.1-0.2-0.2-0.2s-0.3,0-0.3,0.1L382,195l-1.9-0.2
		c-0.1,0-0.2,0-0.3,0.2c-0.1,0.1-0.1,0.2,0,0.3l1,1.6l-0.7,1.8c0,0.1,0,0.2,0.1,0.3c0.1,0.1,0.2,0.1,0.3,0.1l1.8-0.5l1.5,1.3
		l0.1,0.1c0.1,0,0.1,0,0.2,0s0.2-0.2,0.2-0.3l0.1-1.9l1.7-1C386,196.7,386,196.6,386,196.5z"/>
	<path class="st15" d="M181.3,211.1c0-0.2-0.1-0.4-0.3-0.4l-2.9-1.1l-0.6-3c0-0.2-0.2-0.3-0.4-0.4c-0.2,0-0.4,0-0.5,0.2l-1.9,2.3
		l-3-0.3c-0.2,0-0.4,0.1-0.5,0.3c-0.1,0.2-0.1,0.4,0,0.6l1.7,2.6l-1.2,2.8c-0.1,0.2,0,0.4,0.1,0.5c0.1,0.2,0.3,0.2,0.5,0.2l3-0.7
		l2.3,2c0.1,0.1,0.1,0.1,0.2,0.1c0.1,0,0.2,0,0.3,0c0.2-0.1,0.3-0.3,0.3-0.5l0.2-3l2.6-1.6C181.2,211.4,181.3,211.2,181.3,211.1z"/>
	<circle class="st16" cx="287.1" cy="115.8" r="5.6"/>
	<circle class="st16" cx="268.9" cy="109.5" r="2.7"/>
	<circle class="st16" cx="265.6" cy="126.4" r="2.4"/>
	<g>
		<circle class="st16" cx="254.9" cy="224.5" r="4.2"/>
		<circle class="st16" cx="262.5" cy="212" r="2"/>
		<circle class="st16" cx="250.4" cy="206.8" r="1.8"/>
	</g>
	<g>
		<circle class="st16" cx="299.4" cy="365.5" r="5.6"/>
		<circle class="st16" cx="281.3" cy="359.1" r="2.7"/>
		<circle class="st16" cx="278" cy="376.1" r="2.4"/>
	</g>
</g>
</svg>
