<?xml version="1.0" encoding="utf-8"?>
<!-- Generator: Adobe Illustrator 22.0.0, SVG Export Plug-In . SVG Version: 6.00 Build 0)  -->
<svg version="1.1" id="图层_1" xmlns="http://www.w3.org/2000/svg" xmlns:xlink="http://www.w3.org/1999/xlink" x="0px" y="0px"
	 viewBox="0 0 500 500" style="enable-background:new 0 0 500 500;" xml:space="preserve">
<style type="text/css">
	.st0{fill:#EB8C00;}
	.st1{fill:#FFD800;}
	.st2{fill:#FFE971;}
	.st3{fill:#FFC700;}
	.st4{fill:#FFAF00;}
	.st5{fill:#191326;}
</style>
<path class="st0" d="M486,269.9c0,130.8-105.2,227.4-236,227.4S14,400.7,14,269.9S119.2,42.6,250,42.6S486,139.2,486,269.9z"/>
<path class="st1" d="M486,230.1c0,130.8-105.2,227.4-236,227.4S14,361,14,230.1S119.2,2.7,250,2.7S486,99.5,486,230.1z"/>
<path class="st2" d="M414.9,65.3c-20-17.1-45.4-34-71.1-42.6L34,326.7c11.4,25.7,28.3,48.3,48.3,65.4L414.9,65.3z M184.6,449
	c-17.1-5.7-31.2-11.4-48.3-17.1l318.3-315.5c8.6,14.3,14.3,28.3,20,45.4L184.6,449z"/>
<path class="st3" d="M443.2,227.3c0,105.2-85.2,179.1-190.3,179.1s-190.3-74-190.3-179.1s85.1-179,190.3-179
	S443.2,122.1,443.2,227.3z"/>
<path class="st4" d="M423.4,148.6c-56.9-74-162-96.8-247.4-48.3C93.7,148.6,63.7,246,97.8,331.2C75,302.9,59.7,267.8,59.7,228.1
	C59.7,122.9,144.8,49,250,49C326.8,46.3,394.9,86,423.4,148.6z"/>
<g>
	<polygon class="st5" points="180.4,140.3 253.7,98 326.9,140.3 300,155.9 253.7,129.2 207.3,155.9 	"/>
	<polygon class="st5" points="326.9,193.6 300,178 253.7,204.7 207.3,178 180.4,193.6 180.4,224.9 226.7,251.5 226.7,304.9 
		253.7,320.5 280.6,304.9 280.6,251.5 326.9,224.9 	"/>
	<polygon class="st5" points="326.9,278.2 326.9,247 300,262.6 300,293.8 	"/>
	<polygon class="st5" points="346.1,289.3 299.7,315.9 299.7,347.2 373,304.9 373,220.3 346.1,235.9 	"/>
	<polygon class="st5" points="319.1,166.9 346.1,182.6 346.1,213.8 373,198.2 373,166.9 346.1,151.3 	"/>
	<polygon class="st5" points="226.7,327.2 226.7,358.5 253.7,374.1 280.6,358.5 280.6,327.2 253.7,342.9 	"/>
	<polygon class="st5" points="180.4,278.2 207.3,293.8 207.3,262.6 180.4,247 	"/>
	<polygon class="st5" points="226.7,166.9 253.7,182.6 280.6,166.9 253.7,151.3 	"/>
	<polygon class="st5" points="161.2,182.6 188.2,166.9 161.2,151.3 134.3,166.9 134.3,198.2 161.2,213.8 	"/>
	<polygon class="st5" points="161.2,235.9 134.3,220.3 134.3,304.9 207.6,347.2 207.6,315.9 161.2,289.3 	"/>
</g>
</svg>
