<?xml version="1.0" encoding="utf-8"?>
<!-- Generator: Adobe Illustrator 22.0.0, SVG Export Plug-In . SVG Version: 6.00 Build 0)  -->
<svg version="1.1" id="图层_1" xmlns="http://www.w3.org/2000/svg" xmlns:xlink="http://www.w3.org/1999/xlink" x="0px" y="0px"
	 viewBox="0 0 307.9 307.9" style="enable-background:new 0 0 307.9 307.9;" xml:space="preserve">
<style type="text/css">
	.st0{fill:#444444;}
	.st1{fill:#FFFFFF;}
</style>
<title>资源 3</title>
<circle class="st0" cx="153.9" cy="153.9" r="153.9"/>
<path class="st1" d="M154,293.9c-77.2,0-140-62.8-140-139.9S76.8,14,154,14s139.9,62.8,139.9,140S231.1,293.9,154,293.9z M154,23.4
	C82,23.4,23.4,82,23.4,154S82,284.5,154,284.5S284.5,226,284.5,154S226,23.4,154,23.4z"/>
<g>
	<path class="st1" d="M152.7,220.8c-19.7,0-35.1-29.7-35.1-67.5c0-37.9,15.4-67.5,35.1-67.5s35.1,29.7,35.1,67.5
		C187.8,191.2,172.4,220.8,152.7,220.8 M152.7,90.3c-16.5,0-30.5,28.8-30.5,63c0,34.1,14,63,30.5,63s30.5-28.8,30.5-63
		C183.2,119.1,169.3,90.3,152.7,90.3"/>
	<path class="st1" d="M184.7,198.8c-1.2,0-2.4,0-3.7-0.1c-14.1-0.8-30.4-6.2-45.8-15.1c-32.8-18.9-50.8-47.1-41-64.1
		c4.8-8.4,15.6-12.5,30.2-11.7c14.1,0.8,30.4,6.2,45.8,15.1c15.4,8.9,28.2,20.3,35.9,32.1c8.1,12.3,9.9,23.7,5,32
		C206.8,194.7,197.4,198.8,184.7,198.8 M120.8,112.3c-11.1,0-19,3.3-22.6,9.5c-8.3,14.3,9.7,40.8,39.3,57.9
		c14.8,8.5,30.3,13.7,43.8,14.5c12.9,0.7,22.1-2.6,26-9.4c3.9-6.8,2.2-16.5-4.9-27.2c-7.4-11.2-19.6-22.1-34.4-30.7
		c-14.8-8.5-30.3-13.7-43.8-14.5C123,112.3,121.9,112.3,120.8,112.3"/>
	<path class="st1" d="M120.8,198.8c-12.8,0-22.1-4.1-26.6-11.8c-9.8-17,8.2-45.2,41-64.1c15.4-8.9,31.7-14.2,45.8-15.1
		c14.7-0.8,25.4,3.3,30.2,11.7c4.8,8.4,3,19.7-5,32c-7.8,11.8-20.5,23.2-35.9,32.1c-15.4,8.9-31.7,14.2-45.8,15.1
		C123.2,198.8,122,198.8,120.8,198.8 M184.7,112.3c-1.1,0-2.3,0-3.5,0.1c-13.4,0.8-29,5.9-43.8,14.5c-29.6,17.1-47.6,43.6-39.3,57.9
		c3.9,6.8,13.2,10.1,26,9.4c13.4-0.8,29-5.9,43.8-14.5c14.8-8.5,27-19.4,34.4-30.7c7.1-10.8,8.8-20.4,4.9-27.2
		C203.7,115.6,195.8,112.3,184.7,112.3"/>
	<path class="st1" d="M153,252.9l-85.9-49.6v-99.1L153,54.6l85.9,49.6v99.1L153,252.9z M71.7,200.7l81.3,46.9l81.3-46.9v-93.9
		L153,59.8l-81.3,46.9V200.7z"/>
	<polygon class="st1" points="153,156.4 68.3,107.4 70.5,103.5 153,151.1 235.4,103.5 237.7,107.4 	"/>
	<rect x="150.7" y="153.7" class="st1" width="4.5" height="96.5"/>
</g>
</svg>
