<svg width="32" height="32" viewBox="0 0 32 32" fill="none" xmlns="http://www.w3.org/2000/svg">
<g clip-path="url(#clip0_824_539)">
<path d="M15.9292 28.602C22.8746 28.602 28.5049 22.8966 28.5049 15.8586C28.5049 8.82063 22.8746 3.11523 15.9292 3.11523C8.98384 3.11523 3.35352 8.82063 3.35352 15.8586C3.35352 22.8966 8.98384 28.602 15.9292 28.602Z" fill="#F0B90B"/>
<path d="M31.8583 15.8594C31.8583 17.9791 31.4463 20.0781 30.6459 22.0366C29.8453 23.995 28.672 25.7744 27.1928 27.2733C25.7137 28.7722 23.9577 29.9611 22.0251 30.7722C20.0924 31.5835 18.0211 32.001 15.9292 32.001C13.8373 32.001 11.766 31.5835 9.83337 30.7722C7.90074 29.9611 6.14472 28.7722 4.66556 27.2733C3.1864 25.7744 2.01305 23.995 1.21254 22.0366C0.412021 20.0781 -1.82876e-07 17.9791 0 15.8594H3.81783C3.81783 17.4711 4.13109 19.067 4.73975 20.556C5.3484 22.0449 6.24053 23.3979 7.36516 24.5375C8.48981 25.6773 9.82497 26.5812 11.2944 27.198C12.7638 27.8147 14.3387 28.1322 15.9292 28.1322C17.5197 28.1322 19.0946 27.8147 20.564 27.198C22.0335 26.5812 23.3686 25.6773 24.4933 24.5375C25.6179 23.3979 26.5101 22.0449 27.1187 20.556C27.7274 19.067 28.0406 17.4711 28.0406 15.8594H31.8583Z" fill="#C73238"/>
<path d="M28.5049 15.8594C28.5049 17.5329 28.1797 19.19 27.5477 20.736C26.9157 22.2821 25.9894 23.6869 24.8216 24.8703C23.6538 26.0537 22.2675 26.9923 20.7417 27.6328C19.216 28.2732 17.5807 28.6028 15.9292 28.6028C14.2777 28.6028 12.6424 28.2732 11.1167 27.6328C9.59095 26.9923 8.20461 26.0537 7.03684 24.8703C5.86909 23.6869 4.94276 22.2821 4.31078 20.736C3.6788 19.19 3.35352 17.5329 3.35352 15.8594H15.9292H28.5049Z" fill="#070B09"/>
<path d="M10.3086 16.0748L10.3177 19.4445L13.1432 21.1293V23.102L8.6641 20.44V15.0895L10.3086 16.0748ZM10.3086 12.7052V14.6688L8.66309 13.6824V11.7188L10.3086 10.7324L11.9622 11.7188L10.3086 12.7052ZM14.3231 11.7188L15.9687 10.7324L17.6222 11.7188L15.9687 12.7052L14.3231 11.7188Z" fill="white"/>
<path d="M11.498 18.746V16.7733L13.1436 17.7596V19.7232L11.498 18.746ZM14.3235 21.8358L15.9691 22.8223L17.6226 21.8358V23.7994L15.9691 24.7858L14.3235 23.7994V21.8358ZM19.9826 11.7188L21.6281 10.7324L23.2816 11.7188V13.6824L21.6281 14.6688V12.7052L19.9826 11.7188ZM21.6281 19.4445L21.6372 16.0748L23.2826 15.0884V20.439L18.8036 23.1011V21.1283L21.6281 19.4445Z" fill="white"/>
<path d="M20.4478 18.7442L18.8022 19.7214V17.7579L20.4478 16.7715V18.7442Z" fill="white"/>
<path d="M20.4482 13.4031L20.4572 15.3759L17.6237 17.0607V20.4385L15.9781 21.4157L14.3326 20.4385V17.0607L11.4991 15.3759V13.4031L13.1516 12.4167L15.9681 14.1097L18.8016 12.4167L20.4552 13.4031H20.4482ZM11.498 10.0345L15.9691 7.36328L20.4482 10.0345L18.8026 11.0209L15.9691 9.32789L13.1436 11.0209L11.498 10.0345Z" fill="white"/>
</g>
<defs>
<clipPath id="clip0_824_539">
<rect width="32" height="32" fill="white"/>
</clipPath>
</defs>
</svg>
