<?xml version="1.0" encoding="utf-8"?>
<!-- Generator: Adobe Illustrator 22.0.0, SVG Export Plug-In . SVG Version: 6.00 Build 0)  -->
<svg version="1.1" id="图层_1" xmlns="http://www.w3.org/2000/svg" xmlns:xlink="http://www.w3.org/1999/xlink" x="0px" y="0px"
	 viewBox="0 0 100 100" style="enable-background:new 0 0 100 100;" xml:space="preserve">
<style type="text/css">
	.st0{fill:#F8A419;}
	.st1{fill:#F8BD19;}
	.st2{fill:#F87D19;}
	.st3{opacity:0.61;fill:#FACD89;}
	.st4{fill:#FACD89;}
	.st5{opacity:0.56;fill:#FACD89;}
	.st6{fill:#EDBD83;}
	.st7{fill:#7F462F;}
	.st8{opacity:0.7;fill:#FFF3D4;}
	.st9{opacity:0.7;}
	.st10{fill:#FFF3D4;}
	.st11{fill:#DD5425;}
</style>
<g>
	<path class="st0" d="M0.2,46.2c2.3-27.5,26.4-48.1,54-46c27.5,2.1,48,26.2,45.7,53.7c-2.3,27.5-26.4,48.1-54,46
		C18.3,97.7-2.1,73.7,0.2,46.2z"/>
	<path class="st0" d="M55.3,2.3c-27.5-2.1-51.7,18.5-54,46C0.6,58.2,2.7,67.7,7,75.8C1.9,67.2-0.7,57,0.2,46.2
		c2.3-27.5,26.4-48.1,54-46c17.6,1.4,32.3,11.7,40,26.2C86.2,13,72.1,3.6,55.3,2.3z"/>
	<path class="st1" d="M100,49.5C86.9,69.8,61.1,82.5,32.7,80.3c-9.7-0.8-18.9-3.2-27.1-7C1.9,66.1-0.2,57.8,0,49.2
		c8.3,10.2,20.6,17.1,34.7,18.2c27.5,2.1,51.7-18.5,54-46c0.1-1,0.1-2,0.2-3C95.8,26.9,99.9,37.8,100,49.5z"/>
	<path class="st2" d="M45.4,97.3c27.5,2.1,51.7-18.5,54-46c0.3-4.1,0.2-8.2-0.5-12c1,4.7,1.3,9.6,0.9,14.6
		c-2.3,27.5-26.4,48.1-54,46C22.5,98.1,4.2,80.4,0.6,58.2C5.1,79.2,22.9,95.6,45.4,97.3z"/>
	<path class="st0" d="M7,46.7C9,23,29.8,5.2,53.6,7C77.3,8.8,94.9,29.6,93,53.3C91,77,70.2,94.8,46.4,93C22.7,91.2,5.1,70.4,7,46.7z
		"/>
	<path class="st3" d="M38,72.3c23.7,1.8,44.6-15.9,46.5-39.7c0.3-3,0.2-6-0.2-8.9c6.2,8.1,9.5,18.5,8.6,29.6
		C91,77,70.2,94.8,46.4,93C25.7,91.4,9.6,75.4,7.2,55.6C14.3,64.9,25.3,71.3,38,72.3z"/>
	<path class="st4" d="M8.9,46.8c1.9-22.7,21.8-39.7,44.5-38C76.1,10.6,93,30.4,91.1,53.2c-1.9,22.7-21.8,39.7-44.5,38
		C23.9,89.4,7,69.6,8.9,46.8z"/>
	<path class="st5" d="M16.6,50.5c1.6-19.3,18.6-33.8,37.9-32.3c19.3,1.5,33.7,18.4,32.1,37.7C85,75.2,68,89.7,48.7,88.2
		C29.3,86.7,15,69.8,16.6,50.5z"/>
	<path class="st6" d="M47.3,49.8c0.5-1.5,2.2-2.3,3.8-1.7c1.5,0.5,2.4,2.2,1.8,3.7c-0.5,1.5-2.2,2.3-3.8,1.7
		C47.6,52.9,46.7,51.3,47.3,49.8z"/>
	<path class="st7" d="M47,49.7c0.1-1.6,1.6-2.7,3.2-2.6c1.6,0.1,2.8,1.5,2.7,3.1c-0.1,1.6-1.6,2.7-3.2,2.6
		C48.1,52.7,46.9,51.3,47,49.7z"/>
	<path class="st8" d="M48.9,82.5c21.5-1,38.1-19,37.3-40.4c0.6,2.3,0.9,4.6,1.1,7c1,19.7-14.2,36.5-33.9,37.4
		c-9.5,0.4-18.3-2.9-25.1-8.7C34.5,81.1,41.5,82.8,48.9,82.5z"/>
	<g class="st9">
		<path class="st10" d="M43.5,13.1c1.2-0.2,2.4-0.3,3.6-0.3c9.8-0.5,18.9,3,25.8,8.9c-6.3-3.4-13.5-5.2-21.2-4.8
			c-2.8,0.1-5.4,0.5-8,1.2L43.5,13.1z"/>
		<path class="st10" d="M14.1,37.3l4.4-0.2c-3.6,6.3-5.6,13.6-5.3,21.4c-0.6-2.3-1-4.8-1.1-7.3C11.9,46.3,12.6,41.6,14.1,37.3z"/>
	</g>
	<g>
		<polygon class="st0" points="74.2,75.2 75,74.4 76.8,76.3 75.9,77.2 		"/>
		<polygon class="st0" points="25.5,23.1 26.4,22.2 28.2,24.1 27.3,24.9 		"/>
		<polygon class="st0" points="76.3,27.2 75.4,26.3 77.5,24.4 78.4,25.4 		"/>
		<polygon class="st0" points="24.8,77.6 23.9,76.6 25.6,74.9 26.5,75.8 		"/>
		<polygon class="st0" points="81.5,51.2 81.5,50 87.7,50.1 87.7,51.3 		"/>
		<polygon class="st0" points="12.3,49.8 12.3,48.6 18.8,48.7 18.8,49.9 		"/>
		<polygon class="st0" points="51.7,18.5 50.3,18.5 50.3,11.7 51.7,11.7 		"/>
		<polygon class="st0" points="51.4,88.5 50.1,88.5 50.1,81.7 51.5,81.7 		"/>
	</g>
	<path class="st6" d="M48.4,49.9c0.1-0.9,0.9-1.5,1.8-1.4c0.9,0.1,1.5,0.8,1.5,1.7c-0.1,0.9-0.9,1.5-1.8,1.4
		C49,51.5,48.3,50.7,48.4,49.9z"/>
</g>
<polygon class="st6" points="50,51.5 71.6,34 72.5,27.4 67.6,29.6 48.9,50.1 "/>
<polygon class="st11" points="49.3,49.8 69.8,31 70.2,24.4 65.4,26.9 48.1,48.6 "/>
<polygon class="st6" points="49.8,49.2 25.7,50.7 22.2,54.3 26.9,55 50,50.5 "/>
<polygon class="st11" points="49.8,48.2 25.6,47.6 21.6,50.8 26.2,51.9 49.8,49.5 "/>
</svg>
