<?xml version="1.0" encoding="utf-8"?>
<!-- Generator: Adobe Illustrator 22.0.0, SVG Export Plug-In . SVG Version: 6.00 Build 0)  -->
<svg version="1.1" id="图层_1" xmlns="http://www.w3.org/2000/svg" xmlns:xlink="http://www.w3.org/1999/xlink" x="0px" y="0px"
	 viewBox="0 0 500 500" style="enable-background:new 0 0 500 500;" xml:space="preserve">
<style type="text/css">
	.st0{fill:#26A566;}
	.st1{fill:#52F7A5;}
	.st2{fill:#ABF4CE;}
	.st3{fill:#2BEC93;}
	.st4{fill:#24CE78;}
	.st5{clip-path:url(#SVGID_4_);}
	.st6{fill:#20A3FF;}
	.st7{fill:#E6CB8D;stroke:#7F1351;stroke-width:3;stroke-miterlimit:10;}
	.st8{fill:#CFB989;}
	.st9{fill:#CFB989;stroke:#7F1351;stroke-width:3;stroke-miterlimit:10;}
	.st10{fill:#A7E285;}
	.st11{fill:#69B043;}
	.st12{fill:#EBFEE1;stroke:#7F1351;stroke-width:3;stroke-miterlimit:10;}
	.st13{fill:#FFFFFF;}
	.st14{fill:#C8F0B1;}
	.st15{fill:#8DCD6A;stroke:#7F1351;stroke-width:3;stroke-miterlimit:10;}
	.st16{fill:#FBC66F;stroke:#7F1351;stroke-width:3;stroke-miterlimit:10;}
	.st17{fill:#70B648;}
	.st18{fill:#FEFFFF;stroke:#7F1351;stroke-width:3;stroke-miterlimit:10;}
	.st19{fill:#A6E183;stroke:#7F1351;stroke-width:3;stroke-miterlimit:10;}
	.st20{fill:#7F1351;}
	.st21{fill:#67AE41;}
	.st22{fill:#AAE588;stroke:#7F1351;stroke-width:3;stroke-miterlimit:10;}
	.st23{fill:#ABE589;}
	.st24{fill:#85C85B;}
	.st25{fill:#CEEFBA;}
	.st26{fill:#72B749;}
	.st27{fill:#7E1350;}
	.st28{fill:#78BD50;}
	.st29{fill:#54A522;}
	.st30{fill:#FFEDA5;stroke:#7F1351;stroke-width:3;stroke-miterlimit:10;}
	.st31{fill:#58ADD1;}
	.st32{opacity:0.42;fill:#FFFFFF;enable-background:new    ;}
	.st33{opacity:0.5;fill:#AFA57B;enable-background:new    ;}
</style>
<path class="st0" d="M485,269.7C485,399.1,380.8,495,251.4,495S17.8,399.2,17.8,269.7S122,44.4,251.4,44.4S485,140.1,485,269.7z"/>
<path class="st1" d="M485,230.2c0,129.4-104.2,225.3-233.6,225.3S17.8,359.8,17.8,230.2S122,5,251.4,5S485,100.7,485,230.2z"/>
<path class="st2" d="M414.7,67c-19.8-17-45-33.7-70.5-42.2L37.4,326.1c11.3,25.4,28.1,47.9,47.9,64.8L414.7,67z M186.6,447
	c-17-5.7-30.9-11.3-47.9-17l315.4-312.3c8.5,14.1,14.1,28.1,19.8,45L186.6,447z"/>
<path class="st3" d="M442.8,227.3c0,104.2-84.4,177.5-188.6,177.5S65.7,331.5,65.7,227.3S150,50.1,254.2,50.1
	S442.8,123.2,442.8,227.3z"/>
<path class="st4" d="M423,143.1c-56.3-73.3-160.5-95.7-244.9-47.9C96.5,143.1,62.6,241.7,96.5,326.1C73.9,298,62.8,261.3,62.8,221.9
	c0-104.2,84.4-177.5,188.6-177.5C327.3,41.8,395,81.2,423,143.1z"/>
<g>
	<g>
		<g>
			<defs>
				<path id="SVGID_1_" d="M442.8,227.3c0,104.2-84.4,177.5-188.6,177.5S65.7,331.5,65.7,227.3S150,50.1,254.2,50.1
					S442.8,123.2,442.8,227.3z"/>
			</defs>
			<clipPath id="SVGID_2_">
				<use xlink:href="#SVGID_1_"  style="overflow:visible;"/>
			</clipPath>
		</g>
	</g>
</g>
<g>
	<defs>
		<path id="SVGID_3_" d="M442.8,227.3c0,104.2-84.4,177.5-188.6,177.5S65.7,331.5,65.7,227.3S150,50.1,254.2,50.1
			S442.8,123.2,442.8,227.3z"/>
	</defs>
	<clipPath id="SVGID_4_">
		<use xlink:href="#SVGID_3_"  style="overflow:visible;"/>
	</clipPath>
	<g class="st5">
		<ellipse class="st6" cx="248.8" cy="430.1" rx="127.1" ry="31.8"/>
		<g>
			<polygon class="st7" points="111.7,282.4 132.1,279.7 149.6,264.2 181,287.9 154.1,326.9 			"/>
			<polygon class="st8" points="144.5,271.3 156.9,293.1 153.7,324.7 179.1,288.6 149.9,266.2 			"/>
			<path class="st9" d="M377.4,272.2c0,0-1.4,5.9-4.7,10.7l14.2-7.8v-1.2l-9.4-3L377.4,272.2z"/>
		</g>
		<g>
			<path class="st10" d="M157.4,344.5c0,0-4.4,92.3,108.1,76.1c0,0,116.5-38.3,76.8-172.6C342.3,248,174.2,272.8,157.4,344.5z"/>
			<path class="st11" d="M244.9,360.2c0,0,16.5-2.7,18.2-31.2c0,0-1.7-10.4-10-11.9c0,0,1.7-8.6-5.4-12.2c0,0,25.4,1.2,42.6-8.2
				c0,0,23.6-11.8,22.7-22.3v-2.3c0,0-19.4,14.1-30.4,18.6c0,0-23.8,10.3-46.5,13.1L244.9,360.2z"/>
			<path class="st12" d="M185.2,294.9c0,0-6.2-1.8-11.7,6.6c0,0,22.8,32.3,72.2,16.3c0,0,4-9.1-9.9-14.3
				C235.9,303.5,213.1,305.9,185.2,294.9z"/>
			<path class="st13" d="M186.8,302.8c0,0,2.5,0.1,4.3,1.5l3.7,2.2c0,0,1.6,2.7-2.1,3.4l-6.9-3C185.8,306.8,183.8,304.2,186.8,302.8
				z"/>
			<path class="st14" d="M224.1,305.1c0,0,12.5,5.2-4.3,15.9c0,0,13.3-0.2,24.9-4.3c0,0,2.4-7.8-9.1-11.6L224.1,305.1L224.1,305.1z"
				/>
			<path class="st12" d="M172.1,303.1c0,0-12.8,4.9-11.9,19.4c0,0,45.7,33.3,94.4,10.3c0,0,1.2-10.2-9.1-14c0,0-15.1,6-38.4,2.8
				C207.1,321.7,190.4,320.8,172.1,303.1z"/>
			<path class="st13" d="M177.4,316.4c0,0,2.5,0.1,4.3,1.5l3.7,2.2c0,0,1.6,2.7-2.1,3.4l-6.9-3C176.4,320.4,174.4,317.8,177.4,316.4
				z"/>
			<path class="st14" d="M227.7,323.9c0,0,11.4,7.4-0.8,15.3c0,0,15.6-1.7,26.2-7.2c0,0,0.8-7.9-7.5-11.5L227.7,323.9z"/>
			<path class="st12" d="M254.6,335.2c0,0,0.4,21.3-15.8,28c0,0-35.5,14.5-79.4-17.9c0,0-7.1-7.9,0.7-22.8c0,0,24,16.1,45.4,17.5
				C227,341.4,235.4,341.6,254.6,335.2z"/>
			<path class="st14" d="M214.9,342c0,0,7,19.4-32.9,15c0,0,30.7,15.4,58.1,4.1c0,0,11-4.3,13.1-23.7
				C253.1,337.4,236.9,343.5,214.9,342z"/>
		</g>
		<g>
			<path class="st15" d="M151.6,203.1c0,0,12.2-13.1,22.4-3.9c10.2,9.2,25.9,86,25.9,86s-7.8,13.4-23.4,13.9
				c0,0-28.1-20.2-32.2-48.2C144.3,250.9,138.1,220.3,151.6,203.1z"/>
			<path class="st16" d="M145.7,217.4c0,0,7.1-0.1,8.9,6.1c0,0,0.3,1.6-2,2.1c0,0-6,0.6-8.3-0.6
				C144.4,224.7,145.1,219.3,145.7,217.4z"/>
			<path class="st16" d="M144.1,239c0,0,4.3,0,6.1,0.6c1.8,0.6,2.4,0.8,3.5,2.5c0,0,0.2,1.5-0.8,2.3c0,0-3.6,2.6-8.2,2.1L144.1,239z
				"/>
			<path class="st17" d="M160.8,206.5c0,0-7.5,29.9,7.1,58c0,0-3.8,11.1,0,25.2c0,0,5.5,5.5,9.1,7.9c1.9,0,13.9-0.8,21.1-12.7
				c0,0-11.2-59.6-23.9-83.7C174.1,201.1,163.6,195.4,160.8,206.5z"/>
			<path class="st18" d="M164.4,197.6c-0.1-0.9,1.6-12.2,9.2-13.8c0,0,4.4-1.4,4,9.1c-0.3,9.8-7.4,8.2-7.4,8.2
				S164.9,200.5,164.4,197.6z"/>
			<path class="st18" d="M151.2,202.5c-0.1-1.2,1.9-14.6,11-16.6c0,0,5.3-1.7,4.8,10.8c-0.4,11.8-8.9,9.8-8.9,9.8
				S151.7,205.9,151.2,202.5z"/>
		</g>
		<g>
			<path class="st19" d="M176.6,263.8c0,0-7,3.4,0,22.1c0,0,13,19.9,64.2,15.1c0,0,35.6-2.9,68.8-27.8c0,0,30.1-21.6,32.6-25.3
				c2.6-3.7,2.4-17.1,6.8-36C349,212,249.7,305.8,176.6,263.8z"/>
			<path class="st11" d="M176.6,264.9c0,0,9.6,8.9,10.5,9.2c0,0,2.2,9.4,2.2,10.9s50.7,26.3,113.1-7.7c0,0-24.8,17.2-56.8,22.4
				c0,0-48.8,8-68.3-14.4C177.4,285.2,171.4,270,176.6,264.9z"/>
			<g>
				<path class="st20" d="M310.3,282.9c-6.2,1.7-12.1,3.4-18.6,3.6c-0.9,0-1.3-0.5-1.3-1.3c-0.1,0,0,0,0,0c0-0.7,0.4-1.4,1.3-1.4
					c6.3-0.2,12-1.9,18-3.5c0.8-0.2,1.4,0.3,1.6,1c0.1,0,0,0,0,0C311.3,282,311.1,282.7,310.3,282.9z"/>
			</g>
			<g>
				<path class="st20" d="M271,301.6c-11,3.4-19.5,3.8-30.8,2.2c-1.5-0.2-1.4-0.7-1.3-1.5c-0.2,0-0.1,0,0,0c0.1-0.8,0.3-1.3,1.7-1.2
					c10.8,1.4,19,1,29.5-2.1c1.4-0.4,1.7,0.1,1.9,0.9c0.2,0,0.1,0,0,0C272.2,300.8,272.5,301.1,271,301.6z"/>
			</g>
		</g>
		<g>
			<path class="st9" d="M192.5,147.5l17.8-14.6l4.9,2.8l-9.3,11.4l-11.2,3.6C194.8,150.7,180.8,159.1,192.5,147.5z"/>
			<path class="st21" d="M251.5,269.7l11.5-12.6c0,0,7.5-3.6,13.5-3.6c0,0,12.6,0.8,18.3-6.8c0,0,2.5-4.9,5.3-5.8
				c0,0,3.7-0.2,6.3,1.8l5.7-2.6c0,0,3.2-1.6,4.9,2.9c0,0,3.7,5.5-9.6,10.2c0,0-12.4,10.5-19.9,11.6c0,0-3.1,0.8-11.7,0.1
				c0,0-8.2,4-9,4.2c-0.8,0.2-3.8-0.2-3.8-0.2l-15.3,5.3L251.5,269.7z"/>
			<path class="st18" d="M294.7,251.4c0,0,1.3,9,6.2,9c4.9,0,4.7-12.8,4.7-12.8S297.3,244.2,294.7,251.4z"/>
			<path class="st22" d="M352.5,216.7c0,0,10.8-30,1.4-57.2c0,0,4.5-51.7-64.1-59.2s-76,32.6-76,32.6s-5,0.9-6.9,10
				c0,0-1.4,15.5,3.4,21c0,0-7.8,8.7-15.7,13.8c-7.9,5-34.3,19.5-28.5,63.8c0,0,2,29.8,34.4,36.1s43.5-1.8,66.7-17.1
				c0,0,6.1-2.9,25.1-2.5c0,0,5.2-1.5,9-14.2c0,0,5.7,1.8,15.3-1.1"/>
			<g>
				<path class="st23" d="M218.4,148.9c0,0,0-0.1-0.1-0.3c-1.2-2.3-10.5-18.4-21.2,7.5c0,0-3.8,11.1-1,20.6c0,0,7.3-4.3,13.6-11.2
					C213.9,160.9,217.6,155.2,218.4,148.9z"/>
				<path class="st24" d="M196,165.5c0,0-0.3,7.1,0.7,9.7c0,0,7.8-4.9,11-8.9c0,0-0.2-2.7-5.8-4.2
					C201.8,162.2,197.8,162.8,196,165.5z"/>
			</g>
			<g>
				<g>
					<path class="st20" d="M329.7,179.2C329.6,179.2,329.7,179.2,329.7,179.2c-0.4-0.4-0.6-1,0.2-1.5c2.5-1.4,3.2-2.8,3-5.6
						c-0.1-0.9,0.5-1.1,1.1-1c0-0.1,0,0,0,0c0.6,0.1,0.9,0.1,1,1.2c0,3.2-0.9,5.3-3.7,7.1C330.4,179.8,330.1,179.6,329.7,179.2z"/>
				</g>
				<g>
					<path class="st24" d="M343.8,183.7c-3.1-3.4-5.5-2.8-7.8,1.1c-0.4,0.8-1,0.5-1.4,0.1c0,0.1,0,0,0,0c-0.4-0.4-0.7-0.6-0.1-1.4
						c3.1-4.5,6.6-5.3,10.6-1.3c0.8,0.8,0.5,1,0.1,1.4c0.1,0.1,0,0,0,0C345,184,344.4,184.4,343.8,183.7z"/>
				</g>
				<g>
					<path class="st20" d="M342.7,182.3c-3.1-3.4-5.5-2.8-7.8,1.1c-0.4,0.8-1,0.5-1.4,0.1c0,0.1,0,0,0,0c-0.4-0.4-0.7-0.6-0.1-1.4
						c3.1-4.5,6.6-5.3,10.6-1.3c0.8,0.8,0.5,1,0.1,1.4c0.1,0.1,0,0,0,0C343.8,182.6,343.2,182.9,342.7,182.3z"/>
				</g>
				<g>
					<path class="st24" d="M338.6,168.1C338.6,168,338.6,168.1,338.6,168.1c0.5-0.3,1.2-0.3,1.4,0.6c0.6,2.8,1.8,3.9,4.5,4.5
						c0.9,0.2,0.9,0.8,0.6,1.3c0.1,0,0,0,0,0c-0.3,0.5-0.4,0.9-1.4,0.6c-3.1-0.9-4.8-2.5-5.7-5.6
						C337.8,168.6,338.1,168.4,338.6,168.1z"/>
				</g>
				<g>
					<path class="st20" d="M337.5,169.8C337.5,169.6,337.5,169.8,337.5,169.8c0.5-0.3,1.2-0.3,1.4,0.6c0.6,2.8,1.8,3.9,4.5,4.5
						c0.9,0.2,0.9,0.8,0.6,1.3c0.1,0,0,0,0,0c-0.3,0.5-0.4,0.9-1.4,0.6c-3.1-0.9-4.8-2.5-5.7-5.6C336.7,170.2,337,170,337.5,169.8z"
						/>
				</g>
			</g>
			<g>
				<g>
					<path class="st20" d="M324.5,167.8c-20.4-10.9-47.6,2.1-48,25.8c0,1,0.7,1.3,1.4,1.3c0,0.1,0,0,0,0c0.7,0,1.5-0.3,1.5-1.2
						c0.7-21.2,25.1-34,43.8-23.4c0.8,0.5,1.5-0.1,1.8-0.7c0.1,0,0,0,0,0C325.3,169,325.4,168.3,324.5,167.8z"/>
				</g>
				<path class="st24" d="M314.8,204l-20.1-4c-2.2-0.4-3.6-2.5-3.1-4.7l0,0c0.4-2.2,2.5-3.6,4.7-3.1l20.1,4c2.2,0.4,3.6,2.5,3.1,4.7
					l0,0C319,203,316.9,204.4,314.8,204z"/>
				<path class="st24" d="M307.7,191.3l-9,7.6c-1.7,1.4-4.2,1.2-5.6-0.5l0,0c-1.4-1.7-1.2-4.2,0.5-5.6l9-7.6
					c1.7-1.4,4.2-1.2,5.6,0.5l0,0C309.6,187.4,309.4,189.9,307.7,191.3z"/>
				<g>
					<path class="st20" d="M321.3,180.7c-12.5,3.8-20.4,7.8-29.5,17.2c-0.9,0.9-1.7,0.6-2.3,0c-0.1,0.1,0,0,0,0
						c-0.6-0.6-0.9-1.3,0-2.2c9.7-10,17.7-14,30.9-18.1c1.2-0.4,1.7,0.2,2,1c0.1,0,0,0,0,0C322.6,179.5,322.5,180.4,321.3,180.7z"/>
				</g>
				<g>
					<path class="st20" d="M320.6,193.3c-10.2-0.5-20.1,1.4-29.5,5.5c-0.9,0.4-1.7,0.1-2-0.9c-0.1,0-0.1,0,0,0
						c-0.4-0.9-0.1-1.7,0.8-2.1c9.9-4.3,20.2-6.2,30.9-5.8c1,0,1.5,0.7,1.4,1.7c0.1,0,0.1,0,0,0
						C322.2,192.8,321.6,193.4,320.6,193.3z"/>
				</g>
				<g>
					<path class="st20" d="M312.3,206.1c-7.2-3.7-14.9-4-22.5-7.2c-0.7-0.3-1-1.1-0.7-1.9c-0.1,0,0,0,0,0c0.3-0.8,1.2-1.4,1.9-1
						c7.8,3.4,15.3,3.6,22.8,7.5c0.7,0.4,0.9,1.3,0.4,2.1c0.1,0,0,0,0,0C313.9,206.1,313,206.4,312.3,206.1z"/>
				</g>
				<path class="st25" d="M313.1,170.7c0,0-13.8-0.2-16.9,2.2s-11.1,9.1-11.2,16.9c0,0,2.8,2.4,4.4-0.6
					C289.5,189.1,295.9,175.9,313.1,170.7z"/>
			</g>
			<path class="st25" d="M218.4,190.6c0,0-18.2,0.9-27.9,22.7c0,0-4.3,13.3,6.9,16.8c0,0,5.4,1.4,8.7-5.6c0,0,13.3-23.1,17.3-26.5
				C223.3,198,225.8,191.5,218.4,190.6z"/>
			<g>
				<g>
					
						<ellipse transform="matrix(0.9871 -0.1602 0.1602 0.9871 -38.4835 33.6122)" class="st26" cx="189.2" cy="255.5" rx="5" ry="8.1"/>
					<g>
						<path class="st27" d="M185.7,259.6C185.6,259.4,185.7,259.6,185.7,259.6c0.3-0.5,0.8-0.8,1.4-0.1c8.7,9.7,8-16,0.4-10
							c-0.5,0.4-1.1,0.3-1.3-0.3c-0.1,0.1,0,0,0,0c-0.3-0.5-0.5-0.8,0.3-1.4c11.3-8.4,12.6,25.1-0.5,13.3
							C185,260.2,185.5,260.1,185.7,259.6z"/>
					</g>
					<path class="st27" d="M185.5,249.4c0,0-1.1,0.6-1.3,5c0,0,1.3,0.3,1.2-2.5C185.4,251.9,185.2,251.1,185.5,249.4z"/>
				</g>
				<g>
					
						<ellipse transform="matrix(0.5979 -0.8016 0.8016 0.5979 -121.6065 284.5533)" class="st26" cx="222.8" cy="263.5" rx="8.1" ry="5"/>
					<g>
						<path class="st27" d="M224,268.8C224.1,268.7,224,268.8,224,268.8c0-0.5-0.4-1.1-1.2-0.8c-12.2,4.6,0.3-17.9,4.3-9
							c0.3,0.6,0.9,0.7,1.3,0.4c0,0.1,0,0,0,0c0.4-0.3,0.9-0.5,0.4-1.4c-6.1-12.7-22.7,16.5-5.7,12C224.3,269.7,224,269.3,224,268.8
							z"/>
					</g>
					<path class="st27" d="M228.9,259.8c0,0,0.7,1-1.1,5c0,0-1.3-0.3,0.1-2.7C227.8,262.1,228.4,261.5,228.9,259.8z"/>
					<path class="st27" d="M221.5,258.2c0,0,2.7,0.9,2.5,4.4c0,0-0.3,4-6.6,3C217.4,265.6,217.9,261.5,221.5,258.2z"/>
				</g>
				<path class="st27" d="M192.1,250.1c0,0-3.1,0.8-3.1,4.7c0,0-0.1,5.5,4,4.7C193,259.5,194.8,254.3,192.1,250.1z"/>
			</g>
			<path class="st18" d="M265.5,263.1c0,0,1.6,9,7.5,9c5.9,0,6-13.9,6-13.9S268.6,255.9,265.5,263.1z"/>
			<g>
				<path class="st20" d="M311,249.7c-5.3,0.6-9.3-2.7-12.3-6.8c-0.5-0.6-0.3-1.2,0.2-1.6c0,0,0,0,0,0c0.5-0.4,1.2-0.5,1.6,0.1
					c2.7,3.6,5.7,6.8,10.4,6c0.7-0.1,1.2,0.5,1.2,1.1c0.1,0,0,0,0,0C312,249.1,311.8,249.6,311,249.7z"/>
			</g>
			<path class="st9" d="M212,229.6"/>
			<path class="st28" d="M170,209.1c0,0-4.4,24.6,6.9,53.6c0,0-8.4-8-9.5-23.6C167.4,239.1,165.2,224.2,170,209.1z"/>
			<g>
				<g>
					<path class="st20" d="M209.7,164.5C209.7,164.5,209.7,164.5,209.7,164.5c-0.8,0.1-1.5-0.5-1.6-1.4c-0.2-2.8-0.6-5.5-1.9-8
						c-0.4-0.8,0-1.6,0.7-1.9c0-0.1,0,0,0,0c0.7-0.3,1.5-0.2,1.9,0.7c1.4,2.7,2,6,2.2,9C211.1,163.9,210.5,164.4,209.7,164.5z"/>
				</g>
				<g>
					<path class="st20" d="M209.2,164.7C209.2,164.7,209.2,164.7,209.2,164.7c-0.5,0.6-1.4,0.8-2.1,0.2c-2.1-1.8-4.4-3.4-7.1-4.3
						c-0.9-0.3-1.1-1.1-0.9-1.8c-0.1,0,0,0,0,0c0.3-0.8,0.9-1.2,1.8-0.9c3,0.9,5.7,2.7,8,4.8C209.7,163.3,209.7,164,209.2,164.7z"/>
				</g>
				<g>
					<path class="st20" d="M210.6,165C210.7,165,210.6,165,210.6,165c0,0.8-0.6,1.5-1.5,1.4c-2.8,0-5.6,0.1-8.2,1.2
						c-0.8,0.3-1.6-0.1-1.8-0.9c-0.1,0,0,0,0,0c-0.3-0.8,0-1.5,0.9-1.9c2.8-1.2,6.1-1.4,9.2-1.3C210.2,163.5,210.6,164.2,210.6,165z
						"/>
				</g>
			</g>
			<path class="st20" d="M218,149.5c0,0,0.4,0.9,1.6,0.6c0,0,1.1-0.5,0.9-1.4c0,0-2.3-7-8.3-7.8c0,0-10.4-1.7-15.4,12.7
				c0,0-5.5,14-2.3,23.4c0,0,1.1,1.9,2.7,1.5c0,0,10.4-7.5,14.2-13.1c0,0,0.5-0.8,1.5-1.2c0,0,0.7-2.4-1.2-2.8c0,0-3.3,1.2-5.7,7
				c0,0-6,5.3-8.2,6.4c0,0-1.2,0.9-1.4-2.1c0,0-0.4-9.1,3.2-18.5c0,0,3.5-10.5,12-10.9C211.3,143.4,215.7,143.2,218,149.5z"/>
			<g>
				
					<ellipse transform="matrix(0.9007 -0.4344 0.4344 0.9007 -62.9156 157.4859)" class="st16" cx="313.1" cy="216.4" rx="3" ry="4.9"/>
				
					<ellipse transform="matrix(0.8394 -0.5435 0.5435 0.8394 -62.8272 209.1445)" class="st16" cx="322.5" cy="210.9" rx="2.8" ry="4.6"/>
				<ellipse transform="matrix(0.5 -0.866 0.866 0.5 -11.2321 387.3872)" class="st16" cx="329.9" cy="203.4" rx="2.8" ry="4.6"/>
			</g>
		</g>
		<g>
			<path class="st19" d="M318.9,306.3c0,0-13.5-31.6,13-76.9s43.3-3.9,43.3-3.9s22.1,33.2-16.3,80.8"/>
			<path class="st18" d="M356.4,221.6c-0.3-1.2-0.3-15.7,9.1-19.2c0,0,5.4-2.6,6.7,10.7c1.4,12.5-7.9,11.7-7.9,11.7
				S357.5,225.1,356.4,221.6z"/>
			<path class="st18" d="M347.2,222.6c-0.3-1.2-0.3-15.7,9.1-19.2c0,0,5.4-2.6,6.7,10.7c1.4,12.5-7.9,11.7-7.9,11.7
				S348.3,226.1,347.2,222.6z"/>
			<path class="st18" d="M334.2,225.5c-0.3-1.2-0.3-15.1,8.8-18.5c0,0,5.2-2.5,6.5,10.4c1.4,12.1-7.6,11.3-7.6,11.3
				S335.3,228.9,334.2,225.5z"/>
			<path class="st25" d="M331.9,232.5c0,0-2.2,10.4-8.3,30.2c0,0-5.6,24.1-6.5,26.4c0,0-1.1-16.7,4.2-32.4
				C321.3,256.7,327.1,239.4,331.9,232.5z"/>
			
				<ellipse transform="matrix(0.9733 -0.2296 0.2296 0.9733 -48.0046 89.0753)" class="st16" cx="358.8" cy="250.8" rx="19.3" ry="4.8"/>
			
				<ellipse transform="matrix(0.9733 -0.2296 0.2296 0.9733 -52.058 89.1524)" class="st16" cx="357.1" cy="268.3" rx="17.6" ry="4.8"/>
			<path class="st29" d="M344.3,284.2c0,0-2.1,1.9-2,4.9c0,0,0.1,2.8,2,1.8c0,0,4.7-3,5.6-5.6c0,0,1.1-1.4-0.3-2.8
				c0,0-2-0.7-2.3-0.7C347.3,281.8,345.4,282.9,344.3,284.2z"/>
			<path class="st29" d="M345.6,293.4c0,0-0.1-0.9,2.2-2.3c0,0,2.1-1.6,3.3-0.7c0,0,0.8,0.6-1.7,3
				C349.4,293.4,346.4,295.3,345.6,293.4z"/>
			<path class="st29" d="M351.6,286.7v1.3c0,0,0.4,0.9,1.7,0.6c0,0,1.5-0.4,0-1.5C353.3,287.1,352.5,285.7,351.6,286.7z"/>
			<g>
				<path class="st20" d="M309,310.3c0.6-4.7,2.7-8.3,5.7-11.9c0.4-0.5,1.2-0.6,1.8-0.1c0,0,0,0,0,0c0.6,0.5,0.6,1.4,0.3,1.8
					c-2.8,3.4-4.6,6.5-5.2,10.8c-0.1,0.6-0.8,1-1.5,0.8c0,0,0,0,0,0C309.4,311.5,308.9,310.9,309,310.3z"/>
			</g>
		</g>
		<g>
			<path class="st30" d="M110.3,284.9l43.6,43.1l28.6,8.8l22.6,27.9l25.2-6.6l7-8.4l39.7-14.3l31.7,12.5l25.5-36.5
				c0,0,40.1-29.6,52.9-34.9c0,0,12.7,116.4-77.2,161.7c0,0-78.1,43.3-144.1-19.9C165.8,418.2,114.6,378.8,110.3,284.9z"/>
			<g>
				<polygon class="st7" points="112.2,286.5 111.6,284 151.7,302 162.7,317.1 158.7,326.4 156.6,328.1 153.3,327 116.2,290.6 				
					"/>
				<polygon class="st7" points="162.5,316.1 157.3,328.6 181.8,336.1 181.5,328.3 				"/>
				<polygon class="st9" points="181.4,328.2 184,329.5 207.9,361.7 203.2,362.3 182.3,335.9 				"/>
				<polygon class="st7" points="237.7,348.9 274.8,325.8 275.3,335.8 237.7,350.1 				"/>
				<polygon class="st9" points="312.6,341.1 308.7,347.9 275.7,335 274.2,326.2 276,324.7 				"/>
			</g>
			<g>
				<path class="st31" d="M112,288.6l26.6,26.3c0,0-8.9,12.2-23.2,2.8C115.4,317.7,112.5,302.1,112,288.6z"/>
				<path class="st31" d="M136.7,379c0,0,10.9-21.4,32.2-20.5c0,0,23.4-1.7,37,38.4c0,0,6.7,22.4,1.2,46.3
					C207.1,443.4,161.1,426,136.7,379z"/>
				<path class="st31" d="M223.8,361.3l7.4-1.9l6.3-7.7l39.1-14.8l12.3,4.8c0,0-1.9,31.9-20.2,47.5
					C268.7,389.2,240.6,412.8,223.8,361.3z"/>
				<path class="st31" d="M374.2,362.9c0,0-26.2-10.8-39,18.3c0,0-7.8,16.2-2.8,40.7C332.5,421.8,359.5,401.8,374.2,362.9z"/>
				<path class="st31" d="M299.9,441.1c0,0-9.2-11.8-21.4-7.6c0,0-9.6,2.4-11.3,16.3C267.3,449.8,283.4,447.9,299.9,441.1z"/>
				<path class="st32" d="M112.2,289l17,16.6c0,0,4.6,55.1,33.5,107.9C162.6,413.6,118.4,378.4,112.2,289z"/>
			</g>
			<g>
				<g>
					<path class="st20" d="M203.4,381.6C203.4,381.7,203.4,381.6,203.4,381.6c-1.1-0.1-1.9-0.9-1.7-2.2c0.6-5,2.1-10.8,3-15.8
						c0.2-1.4,1.1-1.9,2.2-1.7c0-0.1,0,0,0,0c1.1,0.1,1.9,0.9,1.7,2.3c-0.7,5-2.2,10.7-2.9,15.8
						C205.4,381.2,204.5,381.7,203.4,381.6z"/>
				</g>
				<g>
					<path class="st20" d="M192.2,390.9C192.1,391,192.1,390.9,192.2,390.9c-0.9-0.8-0.8-1.9-0.1-2.7c2.5-3,5.4-4.8,8.3-7.2
						c0.8-0.7,1.9-0.6,2.7,0.1c0.1-0.1,0,0,0,0c0.8,0.8,0.8,2,0,2.7c-2.8,2.5-5.6,4.1-8.1,7C194.2,391.6,193,391.7,192.2,390.9z"/>
				</g>
				<g>
					<path class="st20" d="M318.1,400.5C318,400.5,318.1,400.5,318.1,400.5c0.7-0.9,1.8-1,2.7-0.3c3.2,2.2,5.1,5,7.8,7.8
						c0.8,0.8,0.8,1.8,0,2.7c0.1,0.1,0,0,0,0c-0.7,0.9-1.9,0.9-2.7,0.2c-2.7-2.6-4.5-5.3-7.6-7.6
						C317.6,402.6,317.3,401.4,318.1,400.5z"/>
				</g>
				<g>
					<path class="st20" d="M203,408.2C203,408.3,203,408.3,203,408.2c-1.2,0-1.9-0.5-1.9-2.1c-0.1-5.8,1.4-12,3.4-17.4
						c0.5-1.5,1.2-1.8,2.5-1.5c0-0.1,0-0.1,0,0c1.2,0.3,1.8,1.2,1.3,2.6c-1.8,5.2-3.2,10.9-3.2,16.3
						C205,407.6,204.3,408.2,203,408.2z"/>
				</g>
				<g>
					<path class="st20" d="M205,393.3C205,393.4,205,393.4,205,393.3c-1.2-0.3-1.6-1.7-1.3-2.3c1.1-2.3,1.6-5.3-0.5-7.1
						c-0.6-0.5-0.8-1.7,0.2-2.5c-0.1-0.1-0.1-0.1,0,0c1-0.8,2-0.8,2.8,0c2.9,3,2.9,7,1.2,10.7C207,393.1,206.1,393.6,205,393.3z"/>
				</g>
				<g>
					<path class="st20" d="M328,420C328,420.1,328,420,328,420c-1,0-1.7-0.4-1.8-1.8c-0.3-7.1,0.9-14.6,2.4-21.4
						c0.3-1.3,1.1-1.6,2.1-1.4c0-0.1,0,0,0,0c1,0.2,1.7,0.9,1.4,2.1c-1.4,6.7-2.5,13.9-2.3,20.7C329.8,419.4,329,420,328,420z"/>
				</g>
			</g>
		</g>
		<g>
			<path class="st24" d="M214.9,133.6c0,0-3.1,2.2-3.9,3.5c0,0,14.8,7.2,16.7,8.8c1.9,1.6,11.2,5.6,14.8,3.3s8.2-3.2,8.2-3.2
				s26.1,17.9,30.8,19.7c0,0,0.5,0.9,12.4-5c0,0,7.5-3.6,9.6-4.1c0,0,6.9,6.7,12.2,8.2c0,0,20.2-6.1,22.2-7.1c0,0,12,4.5,17.3,40.9
				c0,0,3.8-25.1-2.5-39.5c0,0-12.6-21.2-40.3-21.9C284.8,136.5,214.9,133.6,214.9,133.6z"/>
			<g>
				<path class="st7" d="M255.4,144.1l5.9-1.6l29.8,18.4l-5.2,2.5c0,0-1,0.3-3-0.9C280.8,161.4,255.4,144.1,255.4,144.1z"/>
				<path class="st7" d="M308.7,153.5l3.2-1l8.7,6.9l-3.8,1.6c0,0-1,0.4-1.7-0.4C314.3,159.9,308.7,153.5,308.7,153.5z"/>
				<path class="st9" d="M356.2,162.3c0,0,10.3,7.5,11.1,9.7c0,0,0.3,0.9-3.1,0.2c-2.7-0.5-5.6-1.4-5.6-1.4L356.2,162.3z"/>
				<g>
					<path class="st30" d="M189.5,149.1c0,0,15.6-66.1,102.1-61.9c0,0,44.7,2.5,70.2,43.5c0,0,13.7,23.8,5.3,40.2L344,151.7
						l-23.8,7.2l-8.4-7.2l-20.9,8.5l-29.8-18.9l-21.6,7.2L212,131.7L189.5,149.1z"/>
					<path class="st31" d="M191.3,146.4c0,0,6.7-26.5,34.6-43c0,0,1.8,18.3-6.1,31.3l-7.8-4.3L191.3,146.4z"/>
					<path class="st31" d="M259.3,90.4c0,0,4.5,28,24.9,29.7c0,0,20.2,2.8,30.8-25.9C314.9,94.3,298.4,83.6,259.3,90.4z"/>
					<path class="st31" d="M273.6,147.6c0,0,7.7-8.3,18.7-7.4c0,0,10.6,0.3,17.8,10.6l-19,7.8L273.6,147.6z"/>
					<path class="st31" d="M364.6,140.3c0,0-8.5,6.5-12.2,16.5l14.3,11.8C366.7,168.6,371.6,157.1,364.6,140.3z"/>
					<path class="st32" d="M191.3,146.3c0,0,14.1-54.4,87.4-58C278.7,88.3,219.9,110.8,191.3,146.3z"/>
					<path class="st33" d="M328.8,100.6c0,0,21.8,11.8,33.4,33.9c4.7,9.9,8.4,23,4.5,34.1l-14.3-11.8
						C352.4,156.8,361.1,143,328.8,100.6z"/>
				</g>
			</g>
		</g>
	</g>
</g>
</svg>
